<?xml version="1.0" encoding="UTF-8" standalone="no"?><svg xmlns="http://www.w3.org/2000/svg" xmlns:xlink="http://www.w3.org/1999/xlink" contentScriptType="application/ecmascript" contentStyleType="text/css" height="391px" preserveAspectRatio="none" style="width:572px;height:391px;background:#FFFFFF;" version="1.1" viewBox="0 0 572 391" width="572px" zoomAndPan="magnify"><defs><filter height="300%" id="fvrl2v3wp9nul" width="300%" x="-1" y="-1"><feGaussianBlur result="blurOut" stdDeviation="2.0"/><feColorMatrix in="blurOut" result="blurOut2" type="matrix" values="0 0 0 0 0 0 0 0 0 0 0 0 0 0 0 0 0 0 .4 0"/><feOffset dx="4.0" dy="4.0" in="blurOut2" result="blurOut3"/><feBlend in="SourceGraphic" in2="blurOut3" mode="normal"/></filter></defs><g><!--MD5=[0e41312d62ea40a0acea66534f5900db]
class monobehaviour--><rect codeLine="1" fill="#FEFECE" filter="url(#fvrl2v3wp9nul)" height="103.3438" id="monobehaviour" style="stroke:#A80036;stroke-width:1.5;" width="120" x="242" y="273.79"/><ellipse cx="257" cy="289.79" fill="#A9DCDF" rx="11" ry="11" style="stroke:#A80036;stroke-width:1.0;"/><path d="M259.1875,291.5556 L255.0469,291.5556 L254.625,292.5869 L255.0469,292.5869 Q255.6563,292.5869 255.9219,292.8213 Q256.1875,293.0556 256.1875,293.4463 Q256.1875,293.8213 255.9219,294.0556 Q255.6563,294.29 255.0469,294.29 L252.75,294.29 Q252.1406,294.29 251.8906,294.0556 Q251.625,293.8213 251.625,293.4306 Q251.625,293.0556 251.9063,292.8213 Q252.1719,292.5713 252.7969,292.5869 L255.4688,285.9306 L254.3594,285.9306 Q253.75,285.9306 253.4844,285.6963 Q253.2188,285.4619 253.2188,285.0713 Q253.2188,284.6963 253.4844,284.4619 Q253.75,284.2275 254.3594,284.2275 L258.0313,284.2275 L261.4219,292.5869 Q262.0156,292.5869 262.2031,292.7275 Q262.5938,292.9931 262.5938,293.4463 Q262.5938,293.8213 262.3281,294.0556 Q262.0781,294.29 261.4688,294.29 L259.1719,294.29 Q258.5625,294.29 258.2969,294.0556 Q258.0313,293.8213 258.0313,293.4306 Q258.0313,293.0556 258.2969,292.8213 Q258.5625,292.5869 259.1719,292.5869 L259.5938,292.5869 L259.1875,291.5556 Z M258.4688,289.8525 L257.1094,286.4775 L255.7344,289.8525 L258.4688,289.8525 Z " fill="#000000"/><text fill="#000000" font-family="sans-serif" font-size="12" font-style="italic" lengthAdjust="spacing" textLength="88" x="271" y="294.7002">monobehaviour</text><line style="stroke:#A80036;stroke-width:1.5;" x1="243" x2="361" y1="305.79" y2="305.79"/><rect fill="none" height="6" style="stroke:#C82930;stroke-width:1.0;" width="6" x="250" y="313.79"/><text fill="#000000" font-family="sans-serif" font-size="11" lengthAdjust="spacing" textLength="70" x="262" y="321.2089">height : double</text><rect fill="none" height="6" style="stroke:#C82930;stroke-width:1.0;" width="6" x="250" y="327.6259"/><text fill="#000000" font-family="sans-serif" font-size="11" lengthAdjust="spacing" textLength="70" x="262" y="335.0449">length : double</text><line style="stroke:#A80036;stroke-width:1.5;" x1="243" x2="361" y1="341.4619" y2="341.4619"/><ellipse cx="253" cy="352.4619" fill="#84BE84" rx="3" ry="3" style="stroke:#038048;stroke-width:1.0;"/><text fill="#000000" font-family="sans-serif" font-size="11" lengthAdjust="spacing" textLength="60" x="262" y="356.8808">Start() : void</text><ellipse cx="253" cy="366.2978" fill="#84BE84" rx="3" ry="3" style="stroke:#038048;stroke-width:1.0;"/><text fill="#000000" font-family="sans-serif" font-size="11" lengthAdjust="spacing" textLength="71" x="262" y="370.7168">Update() : void</text><!--MD5=[308de564e57c8d51c168255b0b03c096]
class player--><rect codeLine="8" fill="#FEFECE" filter="url(#fvrl2v3wp9nul)" height="158.6875" id="player" style="stroke:#A80036;stroke-width:1.5;" width="134" x="7" y="54.79"/><ellipse cx="53.25" cy="70.79" fill="#ADD1B2" rx="11" ry="11" style="stroke:#A80036;stroke-width:1.0;"/><path d="M56.0156,66.665 Q56.1719,66.4463 56.3594,66.3369 Q56.5469,66.2275 56.7656,66.2275 Q57.1406,66.2275 57.375,66.4931 Q57.6094,66.7431 57.6094,67.3525 L57.6094,68.8056 Q57.6094,69.415 57.375,69.6806 Q57.1406,69.9463 56.7656,69.9463 Q56.4219,69.9463 56.2188,69.7431 Q56.0156,69.5556 55.9063,69.04 Q55.8594,68.6806 55.6719,68.4931 Q55.3438,68.1181 54.7344,67.8994 Q54.125,67.6806 53.5,67.6806 Q52.7344,67.6806 52.0938,68.0088 Q51.4688,68.3369 50.9688,69.0869 Q50.4844,69.8369 50.4844,70.8681 L50.4844,71.9619 Q50.4844,73.1963 51.375,74.0244 Q52.2656,74.8369 53.8594,74.8369 Q54.7969,74.8369 55.4531,74.5869 Q55.8438,74.4306 56.2656,73.9931 Q56.5313,73.7275 56.6719,73.6494 Q56.8281,73.5713 57.0313,73.5713 Q57.3594,73.5713 57.6094,73.8369 Q57.875,74.0869 57.875,74.4306 Q57.875,74.7744 57.5313,75.1806 Q57.0313,75.7588 56.2344,76.0869 Q55.1563,76.54 53.8594,76.54 Q52.3438,76.54 51.1406,75.915 Q50.1563,75.415 49.4688,74.3525 Q48.7813,73.2744 48.7813,71.9931 L48.7813,70.8369 Q48.7813,69.5088 49.3906,68.3681 Q50.0156,67.2119 51.1094,66.6025 Q52.2031,65.9775 53.4375,65.9775 Q54.1719,65.9775 54.8125,66.1494 Q55.4688,66.3056 56.0156,66.665 Z " fill="#000000"/><text fill="#000000" font-family="sans-serif" font-size="12" lengthAdjust="spacing" textLength="33" x="73.75" y="75.7002">player</text><line style="stroke:#A80036;stroke-width:1.5;" x1="8" x2="140" y1="86.79" y2="86.79"/><rect fill="none" height="6" style="stroke:#C82930;stroke-width:1.0;" width="6" x="15" y="94.79"/><text fill="#000000" font-family="sans-serif" font-size="11" lengthAdjust="spacing" textLength="70" x="27" y="102.2089">height : double</text><rect fill="none" height="6" style="stroke:#C82930;stroke-width:1.0;" width="6" x="15" y="108.6259"/><text fill="#000000" font-family="sans-serif" font-size="11" lengthAdjust="spacing" textLength="70" x="27" y="116.0449">length : double</text><ellipse cx="18" cy="125.4619" rx="3" ry="3" style="stroke:#038048;stroke-width:1.0;fill:none;"/><text fill="#000000" font-family="sans-serif" font-size="11" lengthAdjust="spacing" textLength="108" x="27" y="129.8808">playerPosition : double</text><rect fill="none" height="6" style="stroke:#C82930;stroke-width:1.0;" width="6" x="15" y="136.2978"/><text fill="#000000" font-family="sans-serif" font-size="11" lengthAdjust="spacing" textLength="71" x="27" y="143.7168">speed : double</text><ellipse cx="18" cy="153.1338" rx="3" ry="3" style="stroke:#038048;stroke-width:1.0;fill:none;"/><text fill="#000000" font-family="sans-serif" font-size="11" lengthAdjust="spacing" textLength="48" x="27" y="157.5527">score : int</text><ellipse cx="18" cy="166.9697" rx="3" ry="3" style="stroke:#038048;stroke-width:1.0;fill:none;"/><text fill="#000000" font-family="sans-serif" font-size="11" lengthAdjust="spacing" textLength="34" x="27" y="171.3886">life : int</text><line style="stroke:#A80036;stroke-width:1.5;" x1="8" x2="140" y1="177.8056" y2="177.8056"/><ellipse cx="18" cy="188.8056" fill="#84BE84" rx="3" ry="3" style="stroke:#038048;stroke-width:1.0;"/><text fill="#000000" font-family="sans-serif" font-size="11" lengthAdjust="spacing" textLength="60" x="27" y="193.2246">Start() : void</text><ellipse cx="18" cy="202.6416" fill="#84BE84" rx="3" ry="3" style="stroke:#038048;stroke-width:1.0;"/><text fill="#000000" font-family="sans-serif" font-size="11" lengthAdjust="spacing" textLength="71" x="27" y="207.0605">Update() : void</text><!--MD5=[1de0b70a4f8c693eb92a40a28a6dc535]
class ball--><rect codeLine="19" fill="#FEFECE" filter="url(#fvrl2v3wp9nul)" height="131.0156" id="ball" style="stroke:#A80036;stroke-width:1.5;" width="112" x="176" y="68.79"/><ellipse cx="218" cy="84.79" fill="#ADD1B2" rx="11" ry="11" style="stroke:#A80036;stroke-width:1.0;"/><path d="M220.7656,80.665 Q220.9219,80.4463 221.1094,80.3369 Q221.2969,80.2275 221.5156,80.2275 Q221.8906,80.2275 222.125,80.4931 Q222.3594,80.7431 222.3594,81.3525 L222.3594,82.8056 Q222.3594,83.415 222.125,83.6806 Q221.8906,83.9463 221.5156,83.9463 Q221.1719,83.9463 220.9688,83.7431 Q220.7656,83.5556 220.6563,83.04 Q220.6094,82.6806 220.4219,82.4931 Q220.0938,82.1181 219.4844,81.8994 Q218.875,81.6806 218.25,81.6806 Q217.4844,81.6806 216.8438,82.0088 Q216.2188,82.3369 215.7188,83.0869 Q215.2344,83.8369 215.2344,84.8681 L215.2344,85.9619 Q215.2344,87.1963 216.125,88.0244 Q217.0156,88.8369 218.6094,88.8369 Q219.5469,88.8369 220.2031,88.5869 Q220.5938,88.4306 221.0156,87.9931 Q221.2813,87.7275 221.4219,87.6494 Q221.5781,87.5713 221.7813,87.5713 Q222.1094,87.5713 222.3594,87.8369 Q222.625,88.0869 222.625,88.4306 Q222.625,88.7744 222.2813,89.1806 Q221.7813,89.7588 220.9844,90.0869 Q219.9063,90.54 218.6094,90.54 Q217.0938,90.54 215.8906,89.915 Q214.9063,89.415 214.2188,88.3525 Q213.5313,87.2744 213.5313,85.9931 L213.5313,84.8369 Q213.5313,83.5088 214.1406,82.3681 Q214.7656,81.2119 215.8594,80.6025 Q216.9531,79.9775 218.1875,79.9775 Q218.9219,79.9775 219.5625,80.1494 Q220.2188,80.3056 220.7656,80.665 Z " fill="#000000"/><text fill="#000000" font-family="sans-serif" font-size="12" lengthAdjust="spacing" textLength="20" x="238" y="89.7002">ball</text><line style="stroke:#A80036;stroke-width:1.5;" x1="177" x2="287" y1="100.79" y2="100.79"/><rect fill="none" height="6" style="stroke:#C82930;stroke-width:1.0;" width="6" x="184" y="108.79"/><text fill="#000000" font-family="sans-serif" font-size="11" lengthAdjust="spacing" textLength="70" x="196" y="116.2089">height : double</text><rect fill="none" height="6" style="stroke:#C82930;stroke-width:1.0;" width="6" x="184" y="122.6259"/><text fill="#000000" font-family="sans-serif" font-size="11" lengthAdjust="spacing" textLength="70" x="196" y="130.0449">length : double</text><ellipse cx="187" cy="139.4619" rx="3" ry="3" style="stroke:#038048;stroke-width:1.0;fill:none;"/><text fill="#000000" font-family="sans-serif" font-size="11" lengthAdjust="spacing" textLength="71" x="196" y="143.8808">speed : double</text><ellipse cx="187" cy="153.2978" rx="3" ry="3" style="stroke:#038048;stroke-width:1.0;fill:none;"/><text fill="#000000" font-family="sans-serif" font-size="11" lengthAdjust="spacing" textLength="86" x="196" y="157.7168">renctagle : double</text><line style="stroke:#A80036;stroke-width:1.5;" x1="177" x2="287" y1="164.1338" y2="164.1338"/><ellipse cx="187" cy="175.1338" fill="#84BE84" rx="3" ry="3" style="stroke:#038048;stroke-width:1.0;"/><text fill="#000000" font-family="sans-serif" font-size="11" lengthAdjust="spacing" textLength="60" x="196" y="179.5527">Start() : void</text><ellipse cx="187" cy="188.9697" fill="#84BE84" rx="3" ry="3" style="stroke:#038048;stroke-width:1.0;"/><text fill="#000000" font-family="sans-serif" font-size="11" lengthAdjust="spacing" textLength="71" x="196" y="193.3886">Update() : void</text><!--MD5=[f02fb2c82a8243493721cb93d21687f5]
class platform--><rect codeLine="28" fill="#FEFECE" filter="url(#fvrl2v3wp9nul)" height="131.0156" id="platform" style="stroke:#A80036;stroke-width:1.5;" width="102" x="456" y="68.79"/><ellipse cx="482.25" cy="84.79" fill="#ADD1B2" rx="11" ry="11" style="stroke:#A80036;stroke-width:1.0;"/><path d="M485.0156,80.665 Q485.1719,80.4463 485.3594,80.3369 Q485.5469,80.2275 485.7656,80.2275 Q486.1406,80.2275 486.375,80.4931 Q486.6094,80.7431 486.6094,81.3525 L486.6094,82.8056 Q486.6094,83.415 486.375,83.6806 Q486.1406,83.9463 485.7656,83.9463 Q485.4219,83.9463 485.2188,83.7431 Q485.0156,83.5556 484.9063,83.04 Q484.8594,82.6806 484.6719,82.4931 Q484.3438,82.1181 483.7344,81.8994 Q483.125,81.6806 482.5,81.6806 Q481.7344,81.6806 481.0938,82.0088 Q480.4688,82.3369 479.9688,83.0869 Q479.4844,83.8369 479.4844,84.8681 L479.4844,85.9619 Q479.4844,87.1963 480.375,88.0244 Q481.2656,88.8369 482.8594,88.8369 Q483.7969,88.8369 484.4531,88.5869 Q484.8438,88.4306 485.2656,87.9931 Q485.5313,87.7275 485.6719,87.6494 Q485.8281,87.5713 486.0313,87.5713 Q486.3594,87.5713 486.6094,87.8369 Q486.875,88.0869 486.875,88.4306 Q486.875,88.7744 486.5313,89.1806 Q486.0313,89.7588 485.2344,90.0869 Q484.1563,90.54 482.8594,90.54 Q481.3438,90.54 480.1406,89.915 Q479.1563,89.415 478.4688,88.3525 Q477.7813,87.2744 477.7813,85.9931 L477.7813,84.8369 Q477.7813,83.5088 478.3906,82.3681 Q479.0156,81.2119 480.1094,80.6025 Q481.2031,79.9775 482.4375,79.9775 Q483.1719,79.9775 483.8125,80.1494 Q484.4688,80.3056 485.0156,80.665 Z " fill="#000000"/><text fill="#000000" font-family="sans-serif" font-size="12" lengthAdjust="spacing" textLength="45" x="498.75" y="89.7002">platform</text><line style="stroke:#A80036;stroke-width:1.5;" x1="457" x2="557" y1="100.79" y2="100.79"/><rect fill="none" height="6" style="stroke:#C82930;stroke-width:1.0;" width="6" x="464" y="108.79"/><text fill="#000000" font-family="sans-serif" font-size="11" lengthAdjust="spacing" textLength="70" x="476" y="116.2089">height : double</text><rect fill="none" height="6" style="stroke:#C82930;stroke-width:1.0;" width="6" x="464" y="122.6259"/><text fill="#000000" font-family="sans-serif" font-size="11" lengthAdjust="spacing" textLength="70" x="476" y="130.0449">length : double</text><ellipse cx="467" cy="139.4619" rx="3" ry="3" style="stroke:#038048;stroke-width:1.0;fill:none;"/><text fill="#000000" font-family="sans-serif" font-size="11" lengthAdjust="spacing" textLength="76" x="476" y="143.8808">scoreValue : int</text><ellipse cx="467" cy="153.2978" rx="3" ry="3" style="stroke:#038048;stroke-width:1.0;fill:none;"/><text fill="#000000" font-family="sans-serif" font-size="11" lengthAdjust="spacing" textLength="34" x="476" y="157.7168">life : int</text><line style="stroke:#A80036;stroke-width:1.5;" x1="457" x2="557" y1="164.1338" y2="164.1338"/><ellipse cx="467" cy="175.1338" fill="#84BE84" rx="3" ry="3" style="stroke:#038048;stroke-width:1.0;"/><text fill="#000000" font-family="sans-serif" font-size="11" lengthAdjust="spacing" textLength="60" x="476" y="179.5527">Start() : void</text><ellipse cx="467" cy="188.9697" fill="#84BE84" rx="3" ry="3" style="stroke:#038048;stroke-width:1.0;"/><text fill="#000000" font-family="sans-serif" font-size="11" lengthAdjust="spacing" textLength="71" x="476" y="193.3886">Update() : void</text><!--MD5=[5a3d999db1fbe9a1816e4ddb607c3c34]
class wall--><rect codeLine="37" fill="#FEFECE" filter="url(#fvrl2v3wp9nul)" height="103.3438" id="wall" style="stroke:#A80036;stroke-width:1.5;" width="97" x="323.5" y="82.79"/><ellipse cx="357.85" cy="98.79" fill="#ADD1B2" rx="11" ry="11" style="stroke:#A80036;stroke-width:1.0;"/><path d="M360.6156,94.665 Q360.7719,94.4463 360.9594,94.3369 Q361.1469,94.2275 361.3656,94.2275 Q361.7406,94.2275 361.975,94.4931 Q362.2094,94.7431 362.2094,95.3525 L362.2094,96.8056 Q362.2094,97.415 361.975,97.6806 Q361.7406,97.9463 361.3656,97.9463 Q361.0219,97.9463 360.8188,97.7431 Q360.6156,97.5556 360.5063,97.04 Q360.4594,96.6806 360.2719,96.4931 Q359.9438,96.1181 359.3344,95.8994 Q358.725,95.6806 358.1,95.6806 Q357.3344,95.6806 356.6938,96.0088 Q356.0688,96.3369 355.5688,97.0869 Q355.0844,97.8369 355.0844,98.8681 L355.0844,99.9619 Q355.0844,101.1963 355.975,102.0244 Q356.8656,102.8369 358.4594,102.8369 Q359.3969,102.8369 360.0531,102.5869 Q360.4438,102.4306 360.8656,101.9931 Q361.1313,101.7275 361.2719,101.6494 Q361.4281,101.5713 361.6313,101.5713 Q361.9594,101.5713 362.2094,101.8369 Q362.475,102.0869 362.475,102.4306 Q362.475,102.7744 362.1313,103.1806 Q361.6313,103.7588 360.8344,104.0869 Q359.7563,104.54 358.4594,104.54 Q356.9438,104.54 355.7406,103.915 Q354.7563,103.415 354.0688,102.3525 Q353.3813,101.2744 353.3813,99.9931 L353.3813,98.8369 Q353.3813,97.5088 353.9906,96.3681 Q354.6156,95.2119 355.7094,94.6025 Q356.8031,93.9775 358.0375,93.9775 Q358.7719,93.9775 359.4125,94.1494 Q360.0688,94.3056 360.6156,94.665 Z " fill="#000000"/><text fill="#000000" font-family="sans-serif" font-size="12" lengthAdjust="spacing" textLength="22" x="376.15" y="103.7002">wall</text><line style="stroke:#A80036;stroke-width:1.5;" x1="324.5" x2="419.5" y1="114.79" y2="114.79"/><rect fill="none" height="6" style="stroke:#C82930;stroke-width:1.0;" width="6" x="331.5" y="122.79"/><text fill="#000000" font-family="sans-serif" font-size="11" lengthAdjust="spacing" textLength="70" x="343.5" y="130.2089">height : double</text><rect fill="none" height="6" style="stroke:#C82930;stroke-width:1.0;" width="6" x="331.5" y="136.6259"/><text fill="#000000" font-family="sans-serif" font-size="11" lengthAdjust="spacing" textLength="70" x="343.5" y="144.0449">length : double</text><line style="stroke:#A80036;stroke-width:1.5;" x1="324.5" x2="419.5" y1="150.4619" y2="150.4619"/><ellipse cx="334.5" cy="161.4619" fill="#84BE84" rx="3" ry="3" style="stroke:#038048;stroke-width:1.0;"/><text fill="#000000" font-family="sans-serif" font-size="11" lengthAdjust="spacing" textLength="60" x="343.5" y="165.8808">Start() : void</text><ellipse cx="334.5" cy="175.2978" fill="#84BE84" rx="3" ry="3" style="stroke:#038048;stroke-width:1.0;"/><text fill="#000000" font-family="sans-serif" font-size="11" lengthAdjust="spacing" textLength="71" x="343.5" y="179.7168">Update() : void</text><!--MD5=[dc340f8200372521e5cb2b139cd013fe]
link platform to monobehaviour--><path codeLine="44" d="M455.64,195.83 C449.83,202.03 443.88,208.13 438,213.79 C419.32,231.76 398,250.02 377.88,266.37 " fill="none" id="platform-to-monobehaviour" style="stroke:#A80036;stroke-width:1.0;"/><polygon fill="none" points="382.05,271.99,362.07,279.04,373.3,261.07,382.05,271.99" style="stroke:#A80036;stroke-width:1.0;"/><!--MD5=[27e31e8ccfccbb466ae66f5cdaf16b57]
link wall to monobehaviour--><path codeLine="45" d="M353.24,185.94 C345.43,207.02 336.24,231.84 327.81,254.59 " fill="none" id="wall-to-monobehaviour" style="stroke:#A80036;stroke-width:1.0;"/><polygon fill="none" points="334.32,257.18,320.81,273.5,321.19,252.32,334.32,257.18" style="stroke:#A80036;stroke-width:1.0;"/><!--MD5=[4257710dd70b10daa98d3b164a542b86]
link player to monobehaviour--><path codeLine="46" d="M141.34,199.28 C146.92,204.25 152.52,209.14 158,213.79 C179.46,231.98 203.47,250.93 225.64,267.88 " fill="none" id="player-to-monobehaviour" style="stroke:#A80036;stroke-width:1.0;"/><polygon fill="none" points="230.08,262.46,241.78,280.13,221.61,273.61,230.08,262.46" style="stroke:#A80036;stroke-width:1.0;"/><!--MD5=[56a32b5abeb6f8bce92e6f20c5906a1c]
link ball to monobehaviour--><path codeLine="47" d="M255.89,199.8 C262.47,217.55 269.62,236.88 276.29,254.89 " fill="none" id="ball-to-monobehaviour" style="stroke:#A80036;stroke-width:1.0;"/><polygon fill="none" points="282.91,252.59,283.29,273.78,269.78,257.46,282.91,252.59" style="stroke:#A80036;stroke-width:1.0;"/><!--MD5=[ecdfd51eb5f3599c5bf159f3dd0ac80b]
link player to ball--><path codeLine="48" d="M141.27,134.29 C151.03,134.29 160.79,134.29 170.55,134.29 " fill="none" id="player-to-ball" style="stroke:#A80036;stroke-width:1.0;"/><polygon fill="#A80036" points="175.65,134.29,166.65,130.29,170.65,134.29,166.65,138.29,175.65,134.29" style="stroke:#A80036;stroke-width:1.0;"/><!--MD5=[78d589feb4e8a71b749116713bbf9587]
link ball to platform--><path codeLine="49" d="M271.35,68.65 C285.42,51.12 302.97,34.39 323.5,24.79 C362.55,6.53 381.7,6 420.5,24.79 C438.89,33.7 454.55,48.63 467.29,64.64 " fill="none" id="ball-to-platform" style="stroke:#A80036;stroke-width:1.0;"/><polygon fill="#A80036" points="470.46,68.73,468.0848,59.1719,467.3873,64.7855,461.7736,64.0881,470.46,68.73" style="stroke:#A80036;stroke-width:1.0;"/><!--MD5=[9914fb64ba47a0cb06e4d097ff47cb39]
link ball to wall--><path codeLine="50" d="M288.05,134.29 C298.11,134.29 308.16,134.29 318.21,134.29 " fill="none" id="ball-to-wall" style="stroke:#A80036;stroke-width:1.0;"/><polygon fill="#A80036" points="323.47,134.29,314.47,130.29,318.47,134.29,314.47,138.29,323.47,134.29" style="stroke:#A80036;stroke-width:1.0;"/><!--MD5=[175ebed70dd48af7b99d47894c8527c9]
@startuml : arkanoid diagramm
abstract class monobehaviour
{
    -height : double
    -length : double
    +Start() : void
    +Update() : void    
}
class player
{
    -height : double
    -length : double
    +playerPosition : double
    -speed : double
    +score : int
    +life : int
    +Start() : void
    +Update() : void
}
class ball
{
    -height : double
    -length : double
    +speed : double
    +renctagle : double
    +Start() : void
    +Update() : void
}
class platform
{
    -height : double
    -length : double
    +scoreValue : int
    +life : int
    +Start() : void
    +Update() : void
}
class wall
{
    -height : double
    -length : double
    +Start() : void
    +Update() : void       
}
platform - -|> monobehaviour
wall - -|> monobehaviour
player - -|> monobehaviour
ball - -|> monobehaviour
player -> ball
ball -> platform
ball -> wall
@enduml

PlantUML version 1.2022.0(Tue Jan 11 19:16:42 MSK 2022)
(GPL source distribution)
Java Runtime: OpenJDK Runtime Environment
JVM: OpenJDK 64-Bit Server VM
Default Encoding: Cp1251
Language: ru
Country: RU
--></g></svg>